# xmcd CD database file
#
# Track frame offsets:
#	150
#	19315
#	37316
#	55115
#	75724
#	99116
#	117363
#	130005
#	148738
#	165155
#
# Disc length: 2419 seconds
#
# Revision: 0
# Processed by: cddbd v1.4PL0 Copyright (c) Steve Scherf et al.
# Submitted via: CDex 1.50Beta3
#
DISCID=7c09710a
DTITLE=unknown - Ritmo Y Sudor
DYEAR=1900
DGENRE=Merengue
TTITLE0=La Tanga
TTITLE1=Vengan Bailando
TTITLE2=Llamala
TTITLE3=Llora Mi Corazon
TTITLE4=Dame
TTITLE5=El Ombliguito
TTITLE6=Que Dia es Hoy
TTITLE7=Como Agua de Sal
TTITLE8=Detelengao
TTITLE9=Serpiente Mala
EXTD=
EXTT0=
EXTT1=
EXTT2=
EXTT3=
EXTT4=
EXTT5=
EXTT6=
EXTT7=
EXTT8=
EXTT9=
PLAYORDER=
